<?xml version="1.0" standalone="no"?><!DOCTYPE svg PUBLIC "-//W3C//DTD SVG 1.1//EN" "http://www.w3.org/Graphics/SVG/1.1/DTD/svg11.dtd"><svg t="1584088269311" class="icon" viewBox="0 0 1024 1024" version="1.1" xmlns="http://www.w3.org/2000/svg" p-id="30686" xmlns:xlink="http://www.w3.org/1999/xlink" width="32" height="32"><defs><style type="text/css"></style></defs><path d="M51.572364 533.038545L40.866909 512l10.705455-21.038545C130.792727 334.661818 310.178909 232.727273 510.324364 232.727273s379.578182 101.981091 458.798545 258.234182l10.658909 21.038545-10.705454 21.038545C889.949091 689.338182 710.562909 791.272727 510.370909 791.272727c-200.145455 0-379.531636-101.981091-458.752-258.234182zM510.324364 698.181818c156.625455 0 295.936-74.053818 364.032-186.181818-68.096-112.128-207.406545-186.181818-363.985455-186.181818-156.672 0-295.982545 74.053818-364.078545 186.181818 68.096 112.128 207.406545 186.181818 364.032 186.181818z m11.636363-46.545454a139.636364 139.636364 0 1 1 0-279.272728 139.636364 139.636364 0 0 1 0 279.272728z" p-id="30687"></path></svg>